# xmcd
#
# Track frame offsets:
#	150
#	17647
#	32865
#	44514
#	58252
#	74472
#	88136
#	108332
#	123283
#	140593
#
# Disc length: 2145 seconds
#
# Revision: 0
# Processed by: cddbd v1.4PL0 Copyright (c) Steve Scherf et al.
# Submitted via: dBpowerAMP V4.0
#
DISCID=91085f0a
DTITLE=Woodleg Odd's - The right track
DYEAR=2002
DGENRE=Blues
TTITLE0=The right track
TTITLE1=Ravin` Blues
TTITLE2=Nyko Nyko
TTITLE3=I give you all you need
TTITLE4=Green eyed women
TTITLE5=Like a well tuned engine
TTITLE6=Who turned you loose
TTITLE7=The image of love
TTITLE8=They don't feed you with lies.
TTITLE9=First mistery
EXTD=
EXTT0=
EXTT1=
EXTT2=
EXTT3=
EXTT4=
EXTT5=
EXTT6=
EXTT7=
EXTT8=
EXTT9=
PLAYORDER=
